<svg xmlns="http://www.w3.org/2000/svg" width="51.166" height="43.524" viewBox="0 0 51.166 43.524"><defs><style>.a{fill:#707070;}</style></defs><g transform="translate(-4.75 -13.6)"><path class="a" d="M55.161,13.6H5.506a.756.756,0,0,0-.756.756V56.371a.756.756,0,0,0,.756.752H55.161a.756.756,0,0,0,.756-.756V14.354a.756.756,0,0,0-.756-.754Zm-48.9,1.511H54.4V19.7H6.261Zm0,40.5v-34.4H54.4v34.4Z"/><path class="a" d="M81.24,19.393A1.306,1.306,0,1,0,82.545,20.7,1.306,1.306,0,0,0,81.24,19.393Z" transform="translate(-42.721 -3.292)"/><path class="a" d="M93.073,19.393A1.306,1.306,0,1,0,94.378,20.7a1.306,1.306,0,0,0-1.305-1.306Z" transform="translate(-49.445 -3.292)"/><path class="a" d="M104.906,19.393a1.306,1.306,0,1,0,1.305,1.306,1.306,1.306,0,0,0-1.305-1.306Z" transform="translate(-56.168 -3.292)"/><path class="a" d="M81.219,52.15,70.41,62.96a.757.757,0,0,0-.1.13c-.006.011-.011.023-.018.034a.782.782,0,0,0-.058.13c0,.008-.008.015-.01.023l-1.358,4.511a.756.756,0,0,0,.941.941l4.513-1.355c.009,0,.016-.008.024-.011a.746.746,0,0,0,.13-.057l.035-.019a.777.777,0,0,0,.13-.1L85.441,56.374a2.986,2.986,0,1,0-4.222-4.224Zm-10.5,14.724.589-1.955,1.367,1.367ZM84.374,55.3,74.1,65.578l-2.085-2.084L82.289,53.217A1.475,1.475,0,1,1,84.376,55.3Z" transform="translate(-36.412 -21.408)"/><path class="a" d="M91.055,59.136l-5.61,5.611a.756.756,0,1,0,1.068,1.069L92.122,60.2a.756.756,0,0,0-1.067-1.069Z" transform="translate(-45.726 -25.761)"/><path class="a" d="M33.345,69.32H19.43a.756.756,0,1,0,0,1.511H33.345a.756.756,0,1,0,0-1.511Z" transform="translate(-7.912 -31.661)"/><path class="a" d="M19.427,80.305H33.342a.756.756,0,0,0,0-1.511H19.427a.756.756,0,0,0,0,1.511Z" transform="translate(-7.91 -37.044)"/><path class="a" d="M33.343,88.269H19.427a.756.756,0,0,0,0,1.511H33.343a.756.756,0,0,0,0-1.511Z" transform="translate(-7.91 -42.428)"/><path class="a" d="M33.345,50.372H19.43a.756.756,0,1,0,0,1.511H33.345a.756.756,0,1,0,0-1.511Z" transform="translate(-7.912 -20.895)"/><path class="a" d="M19.427,61.356H33.342a.756.756,0,0,0,0-1.511H19.427a.756.756,0,0,0,0,1.511Z" transform="translate(-7.91 -26.277)"/></g></svg>