<svg xmlns="http://www.w3.org/2000/svg" width="37.3" height="50.257" viewBox="0 0 37.3 50.257"><defs><style>.a{fill:#707070;}</style></defs><path class="a" d="M180.982,332a.982.982,0,1,0,.982.982A.982.982,0,0,0,180.982,332Zm0,0" transform="translate(-162.332 -299.412)"/><path class="a" d="M5.889,37.4v6.969H4.908a2.948,2.948,0,0,0-2.945,2.945v.982H.982a.982.982,0,0,0,0,1.963H36.318a.982.982,0,0,0,0-1.963h-.982v-.982a2.948,2.948,0,0,0-2.945-2.945H31.41V37.4a14.858,14.858,0,0,0-6.455-12.27A14.889,14.889,0,0,0,31.41,12.859V5.889h.982a2.948,2.948,0,0,0,2.945-2.945V1.963h.982a.982.982,0,0,0,0-1.963H.982a.982.982,0,0,0,0,1.963h.982v.982A2.948,2.948,0,0,0,4.908,5.889h.982v6.969a14.858,14.858,0,0,0,6.455,12.27A14.888,14.888,0,0,0,5.889,37.4Zm26.5,8.932a.982.982,0,0,1,.982.982v.982H3.926v-.982a.982.982,0,0,1,.982-.982ZM11.84,44.367c.295-2.163,1.672-2.894,4.309-4.294l2.5-1.332,2.5,1.332c2.637,1.4,4.013,2.131,4.309,4.294ZM4.908,3.926a.982.982,0,0,1-.982-.982V1.963H33.373v.982a.982.982,0,0,1-.982.982Zm9.787,22.068a.982.982,0,0,0,0-1.732,12.9,12.9,0,0,1-6.842-11.4V5.889H29.447v6.969a12.924,12.924,0,0,1-6.842,11.4.982.982,0,0,0,0,1.732,12.9,12.9,0,0,1,6.842,11.4v6.969H27.433c-.356-3.369-2.592-4.558-5.362-6.028l-2.96-1.577a.98.98,0,0,0-.923,0l-2.96,1.577c-2.77,1.47-5.006,2.659-5.362,6.028H7.853V37.4a12.925,12.925,0,0,1,6.842-11.4Zm0,0"/><path class="a" d="M107.962,125.17v6.022a.982.982,0,1,0,1.963,0V125.17l2.051-1.093a10.933,10.933,0,0,0,5.789-9.131.982.982,0,0,0-.669-.979l-3.244-1.084a5.469,5.469,0,0,0-5.6,1.32,3.489,3.489,0,0,1-3.592.847l-3.244-1.084a.981.981,0,0,0-1.292.979,10.936,10.936,0,0,0,5.789,9.132Zm-5.687-8.846,1.761.589a5.443,5.443,0,0,0,5.6-1.321,3.5,3.5,0,0,1,3.592-.847l2.51.838a8.9,8.9,0,0,1-4.687,6.761l-2.109,1.124-2.109-1.124a8.9,8.9,0,0,1-4.559-6.021Zm0,0" transform="translate(-90.293 -101.549)"/></svg>