<svg xmlns="http://www.w3.org/2000/svg" width="54.825" height="50.257" viewBox="0 0 54.825 50.257"><defs><style>.a{fill:#707070;}</style></defs><g transform="translate(0 -1)"><path class="a" d="M41.119,37.55H35.408a1.142,1.142,0,1,1,0-2.284h5.711a11.41,11.41,0,0,0,.692-22.8,1.141,1.141,0,0,1-.973-.658,14.831,14.831,0,0,0-28.1,4.2,1.144,1.144,0,0,1-1.131.982,9.138,9.138,0,1,0-.183,18.275h8a1.142,1.142,0,0,1,0,2.284h-8a11.422,11.422,0,0,1-.786-22.816,17.117,17.117,0,0,1,31.975-4.5A13.7,13.7,0,0,1,41.119,37.55Z"/><path class="a" d="M12.642,31.238A1.143,1.143,0,0,1,11.5,30.1v-17.7a1.142,1.142,0,1,1,2.284,0V30.1A1.143,1.143,0,0,1,12.642,31.238Z" transform="translate(14.77 13.165)"/><path class="a" d="M21.563,19a1.147,1.147,0,0,1-.809-.334l-4.9-4.9-4.9,4.9a1.142,1.142,0,1,1-1.615-1.615l5.711-5.711a1.143,1.143,0,0,1,1.615,0l5.711,5.711A1.143,1.143,0,0,1,21.563,19Z" transform="translate(11.56 12.844)"/><path class="a" d="M26.417,28.138H10.427A3.431,3.431,0,0,1,7,24.711V20.142a1.142,1.142,0,0,1,2.284,0v4.569a1.144,1.144,0,0,0,1.142,1.142H26.417a1.144,1.144,0,0,0,1.142-1.142V20.142a1.142,1.142,0,0,1,2.284,0v4.569A3.431,3.431,0,0,1,26.417,28.138Z" transform="translate(8.991 23.119)"/></g></svg>