<svg xmlns="http://www.w3.org/2000/svg" width="50.385" height="50.386" viewBox="0 0 50.385 50.386"><defs><style>.a{fill:#0f0c0a;}</style></defs><g transform="translate(-0.01)"><g transform="translate(0.01)"><path class="a" d="M102.994,44a.985.985,0,1,0,.7.288A.991.991,0,0,0,102.994,44Z" transform="translate(-91.972 -39.67)"/><path class="a" d="M54.994,44a.985.985,0,1,0,.7.288A.991.991,0,0,0,54.994,44Z" transform="translate(-48.696 -39.67)"/><path class="a" d="M150.994,44a.985.985,0,1,0,.7.288A.991.991,0,0,0,150.994,44Z" transform="translate(-135.249 -39.67)"/><path class="a" d="M161.144,360.02h-8.233a.984.984,0,0,0,0,1.968h8.233a.984.984,0,0,0,0-1.968Z" transform="translate(-136.977 -324.591)"/><path class="a" d="M288.694,360.02a.985.985,0,1,0,.7.288A.99.99,0,0,0,288.694,360.02Z" transform="translate(-259.398 -324.591)"/><path class="a" d="M341.074,360.02a.985.985,0,1,0,.7.288A.992.992,0,0,0,341.074,360.02Z" transform="translate(-306.624 -324.591)"/><path class="a" d="M161.144,184.02h-8.233a.984.984,0,1,0,0,1.968h8.233a.984.984,0,1,0,0-1.968Z" transform="translate(-136.977 -165.911)"/><path class="a" d="M288.694,184.02a.985.985,0,1,0,.7.288A.991.991,0,0,0,288.694,184.02Z" transform="translate(-259.398 -165.911)"/><path class="a" d="M341.074,184.02a.985.985,0,1,0,.7.288A.991.991,0,0,0,341.074,184.02Z" transform="translate(-306.624 -165.911)"/><path class="a" d="M161.144,272.02h-8.233a.984.984,0,0,0,0,1.968h8.233a.984.984,0,1,0,0-1.968Z" transform="translate(-136.977 -245.251)"/><path class="a" d="M288.694,272.02a.985.985,0,1,0,.7.288A.99.99,0,0,0,288.694,272.02Z" transform="translate(-259.398 -245.251)"/><path class="a" d="M341.074,272.02a.985.985,0,1,0,.7.288A.991.991,0,0,0,341.074,272.02Z" transform="translate(-306.624 -245.251)"/><path class="a" d="M46.262,0H4.143A4.138,4.138,0,0,0,.01,4.133V33.65a4.138,4.138,0,0,0,4.133,4.133h6.3v.991a2.956,2.956,0,0,0,2.952,2.952H24.218v2.116A3.36,3.36,0,0,0,22,46.057H11.425a.984.984,0,0,0,0,1.968H22a3.346,3.346,0,0,0,6.4,0H38.979a.984.984,0,1,0,0-1.968H28.4a3.36,3.36,0,0,0-2.214-2.214V41.727H37.011a2.956,2.956,0,0,0,2.952-2.952v-.991h6.3a4.138,4.138,0,0,0,4.133-4.133V4.133A4.138,4.138,0,0,0,46.262,0ZM25.2,48.418a1.378,1.378,0,1,1,1.378-1.378A1.379,1.379,0,0,1,25.2,48.418ZM12.409,21.455V16.731a.985.985,0,0,1,.984-.984H37.011a.985.985,0,0,1,.984.984v4.724a.985.985,0,0,1-.984.984H13.393A.985.985,0,0,1,12.409,21.455Zm0,8.66V25.391a.985.985,0,0,1,.984-.984H37.011a.985.985,0,0,1,.984.984v4.724a.985.985,0,0,1-.984.984H13.393A.985.985,0,0,1,12.409,30.115Zm24.6,9.644H13.393a.985.985,0,0,1-.984-.984V34.051a.985.985,0,0,1,.984-.984H37.011a.985.985,0,0,1,.984.984v4.724A.985.985,0,0,1,37.011,39.759Zm9.25-3.943h-6.3V34.051a2.94,2.94,0,0,0-.754-1.968,2.94,2.94,0,0,0,.754-1.968V25.391a2.94,2.94,0,0,0-.754-1.968,2.94,2.94,0,0,0,.754-1.968V16.731a2.956,2.956,0,0,0-2.952-2.952H13.393a2.956,2.956,0,0,0-2.952,2.952v4.724a2.94,2.94,0,0,0,.754,1.968,2.94,2.94,0,0,0-.754,1.968v4.724a2.94,2.94,0,0,0,.754,1.968,2.94,2.94,0,0,0-.754,1.968v1.765h-6.3a2.167,2.167,0,0,1-2.165-2.165V10.628h18.8a.984.984,0,1,0,0-1.968H1.978V4.133A2.167,2.167,0,0,1,4.143,1.968H46.262a2.167,2.167,0,0,1,2.165,2.165V8.66h-18.8a.984.984,0,0,0,0,1.968h18.8V33.65A2.167,2.167,0,0,1,46.262,35.815Z" transform="translate(-0.01)"/><path class="a" d="M246.994,88a.985.985,0,1,0,.7.288A.991.991,0,0,0,246.994,88Z" transform="translate(-221.802 -79.34)"/></g></g></svg>