<svg xmlns="http://www.w3.org/2000/svg" width="48.091" height="48.268" viewBox="0 0 48.091 48.268"><g transform="translate(-0.879 0)"><g transform="translate(0.879 0)"><g transform="translate(0 0)"><path d="M43.341,12.076a5.722,5.722,0,0,0-1.73.266,10.279,10.279,0,0,0,.08-1.272A11.26,11.26,0,0,0,19.976,7.085,6.933,6.933,0,0,0,9.391,12.846a5.744,5.744,0,0,0-2.882-.77,5.63,5.63,0,1,0,0,11.26.8.8,0,0,0,0-1.609,4.021,4.021,0,1,1,3.458-6.179.8.8,0,0,0,1.419-.742A5.107,5.107,0,0,1,11,12.88a5.286,5.286,0,0,1,5.332-5.228,5.372,5.372,0,0,1,3.527,1.338.8.8,0,0,0,1.3-.392A9.647,9.647,0,0,1,40.077,11.07a9.329,9.329,0,0,1-.35,2.493.8.8,0,0,0,1.236.874,4.124,4.124,0,0,1,2.377-.754,4.021,4.021,0,0,1,0,8.043.8.8,0,1,0,0,1.609,5.63,5.63,0,1,0,0-11.26Z" transform="translate(-0.879 0)" fill="#5368f1"/></g></g><g transform="translate(8.837 30.574)"><path d="M109.8,304.119H82.452a2.413,2.413,0,0,0-2.413,2.413v3.217a2.413,2.413,0,0,0,2.413,2.413H109.8a2.413,2.413,0,0,0,2.413-2.413v-3.217A2.413,2.413,0,0,0,109.8,304.119Zm.8,5.63a.8.8,0,0,1-.8.8H82.452a.8.8,0,0,1-.8-.8v-3.217a.8.8,0,0,1,.8-.8H109.8a.8.8,0,0,1,.8.8Z" transform="translate(-80.039 -304.119)" fill="#5368f1"/></g><g transform="translate(34.815 33.037)"><path d="M339.988,328.615a1.559,1.559,0,1,0,1.568,1.549A1.559,1.559,0,0,0,339.988,328.615Zm.019,1.609c-.024,0-.04-.027-.04-.051l.04-.05Z" transform="translate(-338.439 -328.615)" fill="#5368f1"/></g><g transform="translate(11.894 33.791)"><path d="M126.524,336.119H111.243a.8.8,0,1,0,0,1.609h15.281a.8.8,0,1,0,0-1.609Z" transform="translate(-110.439 -336.119)" fill="#5368f1"/></g><g transform="translate(30.002 33.791)"><path d="M293.5,336.119h-2.139a.8.8,0,1,0,0,1.609H293.5a.8.8,0,0,0,0-1.609Z" transform="translate(-290.559 -336.119)" fill="#5368f1"/></g><g transform="translate(8.837 40.225)"><path d="M109.8,400.119H82.452a2.413,2.413,0,0,0-2.413,2.413v3.217a2.413,2.413,0,0,0,2.413,2.413H109.8a2.413,2.413,0,0,0,2.413-2.413v-3.217A2.413,2.413,0,0,0,109.8,400.119Zm.8,5.63a.8.8,0,0,1-.8.8H82.452a.8.8,0,0,1-.8-.8v-3.217a.8.8,0,0,1,.8-.8H109.8a.8.8,0,0,1,.8.8Z" transform="translate(-80.039 -400.119)" fill="#5368f1"/></g><g transform="translate(34.815 42.688)"><path d="M339.988,424.615a1.559,1.559,0,1,0,1.568,1.549A1.559,1.559,0,0,0,339.988,424.615Zm.019,1.609c-.024,0-.04-.026-.04-.051l.04-.05Z" transform="translate(-338.439 -424.615)" fill="#5368f1"/></g><g transform="translate(11.894 43.443)"><path d="M126.524,432.119H111.243a.8.8,0,1,0,0,1.609h15.281a.8.8,0,1,0,0-1.609Z" transform="translate(-110.439 -432.119)" fill="#5368f1"/></g><g transform="translate(30.002 43.443)"><path d="M293.5,432.119h-2.139a.8.8,0,1,0,0,1.609H293.5a.8.8,0,0,0,0-1.609Z" transform="translate(-290.559 -432.119)" fill="#5368f1"/></g><g transform="translate(8.837 20.923)"><path d="M109.8,208.119H82.452a2.413,2.413,0,0,0-2.413,2.413v3.217a2.413,2.413,0,0,0,2.413,2.413H109.8a2.413,2.413,0,0,0,2.413-2.413v-3.217A2.413,2.413,0,0,0,109.8,208.119Zm.8,5.63a.8.8,0,0,1-.8.8H82.452a.8.8,0,0,1-.8-.8v-3.217a.8.8,0,0,1,.8-.8H109.8a.8.8,0,0,1,.8.8Z" transform="translate(-80.039 -208.119)" fill="#5368f1"/></g><g transform="translate(34.567 23.433)"><path d="M339.079,234.376a1.572,1.572,0,0,0-2.83-.628,1.539,1.539,0,0,0-.259,1.162,1.574,1.574,0,0,0,1.547,1.294,1.612,1.612,0,0,0,.262-.022,1.553,1.553,0,0,0,1.021-.643A1.533,1.533,0,0,0,339.079,234.376Zm-1.583.283.036-.064,0,.1C337.5,234.7,337.5,234.676,337.5,234.659Z" transform="translate(-335.965 -233.084)" fill="#5368f1"/></g><g transform="translate(11.733 24.14)"><path d="M124.924,240.119H109.643a.8.8,0,1,0,0,1.609h15.281a.8.8,0,1,0,0-1.609Z" transform="translate(-108.839 -240.119)" fill="#5368f1"/></g><g transform="translate(29.488 24.14)"><path d="M288.391,240.119h-2.139a.8.8,0,1,0,0,1.609h2.139a.8.8,0,0,0,0-1.609Z" transform="translate(-285.447 -240.119)" fill="#5368f1"/></g><g transform="translate(15.281 10.468)"><path d="M150.326,106.769l-2.413-2.413a.8.8,0,0,0-1.137,0l-2.413,2.413a.8.8,0,0,0,1.137,1.137l1.04-1.04v5.3a.8.8,0,1,0,1.609,0v-5.3l1.04,1.04a.8.8,0,0,0,1.137-1.137Z" transform="translate(-144.138 -104.121)" fill="#5368f1"/></g><g transform="translate(28.15 10.467)"><path d="M278.306,109.18a.8.8,0,0,0-1.118,0l-1.04,1.04v-5.3a.8.8,0,0,0-1.609,0v5.3l-1.04-1.04a.8.8,0,0,0-1.137,1.137l2.413,2.413a.8.8,0,0,0,1.137,0l2.413-2.413A.8.8,0,0,0,278.306,109.18Z" transform="translate(-272.138 -104.119)" fill="#5368f1"/></g></g></svg>