<svg xmlns="http://www.w3.org/2000/svg" width="48.149" height="48.149" viewBox="0 0 48.149 48.149"><g transform="translate(-2 -2)"><path d="M47.742,11.63a2.407,2.407,0,0,0,2.407-2.407V4.407A2.407,2.407,0,0,0,47.742,2H22.062a2.407,2.407,0,0,0-2.407,2.407V9.222a2.407,2.407,0,0,0,2.407,2.407h.8v1.6h-.8a2.407,2.407,0,0,0-2.407,2.407v4.815a2.407,2.407,0,0,0,2.407,2.407h.8v1.6h-.8a2.407,2.407,0,0,0-2.407,2.407v4.815A2.407,2.407,0,0,0,22.062,34.1h.8v1.03a5.617,5.617,0,0,0-2.207.1l-4.213,1.053V34.9a.8.8,0,0,0-.8-.8H9.222a.8.8,0,0,0-.8.8v.8H2.8a.8.8,0,0,0-.8.8V47.742a.8.8,0,0,0,.8.8H8.42v.8a.8.8,0,0,0,.8.8h6.42a.8.8,0,0,0,.8-.8V48.238l1.032.516a5.64,5.64,0,0,0,2.513.593H32.007a5.626,5.626,0,0,0,2.809-.753L48.3,40.81a3.21,3.21,0,0,0-1.359-5.971V34.1h.8a2.407,2.407,0,0,0,2.407-2.407V26.877a2.407,2.407,0,0,0-2.407-2.407h-.8v-1.6h.8a2.407,2.407,0,0,0,2.407-2.407V15.642a2.407,2.407,0,0,0-2.407-2.407h-.8v-1.6ZM3.6,46.939v-9.63H8.42v9.63Zm11.235,1.6H10.025V35.7H14.84ZM48.074,37.229a1.611,1.611,0,0,1-.581,2.195L34.011,47.208A4.012,4.012,0,0,1,32,47.746H19.989a4.041,4.041,0,0,1-1.8-.424l-1.749-.879V37.937l4.6-1.151a4.02,4.02,0,0,1,2.012.017l11.973,3.21a1.6,1.6,0,1,1-.831,3.1L24.63,40.547a.8.8,0,1,0-.415,1.55l9.57,2.568a3.245,3.245,0,0,0,.836.111A3.171,3.171,0,0,0,37.8,41.311l8.083-4.666A1.633,1.633,0,0,1,48.074,37.229ZM25.162,35.7l-.693-.185V34.1H45.334v1.028c-.08.039-.168.076-.249.123L44.3,35.7Zm16.356,1.6L37.26,39.767a3.181,3.181,0,0,0-1.813-1.307l-4.295-1.151Zm6.223-11.235a.8.8,0,0,1,.8.8v4.815a.8.8,0,0,1-.8.8H22.062a.8.8,0,0,1-.8-.8V26.877a.8.8,0,0,1,.8-.8ZM24.47,24.47v-1.6H45.334v1.6Zm23.272-9.63a.8.8,0,0,1,.8.8v4.815a.8.8,0,0,1-.8.8H22.062a.8.8,0,0,1-.8-.8V15.642a.8.8,0,0,1,.8-.8Zm-23.272-1.6v-1.6H45.334v1.6Zm-2.407-3.21a.8.8,0,0,1-.8-.8V4.407a.8.8,0,0,1,.8-.8h25.68a.8.8,0,0,1,.8.8V9.222a.8.8,0,0,1-.8.8Z" transform="translate(0 0)" fill="#5368f1"/><path d="M28,6h1.6V9.21H28Z" transform="translate(-5.135 -0.79)" fill="#5368f1"/><path d="M32,6h1.6V9.21H32Z" transform="translate(-5.925 -0.79)" fill="#5368f1"/><path d="M36,6h1.6V9.21H36Z" transform="translate(-6.715 -0.79)" fill="#5368f1"/><path d="M44,6h1.6V9.21H44Z" transform="translate(-8.296 -0.79)" fill="#5368f1"/><path d="M40,6h1.6V9.21H40Z" transform="translate(-7.506 -0.79)" fill="#5368f1"/><path d="M32,20h1.6v3.21H32Z" transform="translate(-5.925 -3.555)" fill="#5368f1"/><path d="M28,20h1.6v3.21H28Z" transform="translate(-5.135 -3.555)" fill="#5368f1"/><path d="M36,20h1.6v3.21H36Z" transform="translate(-6.715 -3.555)" fill="#5368f1"/><path d="M40,20h1.6v3.21H40Z" transform="translate(-7.506 -3.555)" fill="#5368f1"/><path d="M44,20h1.6v3.21H44Z" transform="translate(-8.296 -3.555)" fill="#5368f1"/><path d="M28,34h1.6v3.21H28Z" transform="translate(-5.135 -6.32)" fill="#5368f1"/><path d="M32,34h1.6v3.21H32Z" transform="translate(-5.925 -6.32)" fill="#5368f1"/><path d="M36,34h1.6v3.21H36Z" transform="translate(-6.715 -6.32)" fill="#5368f1"/><path d="M40,34h1.6v3.21H40Z" transform="translate(-7.506 -6.32)" fill="#5368f1"/><path d="M44,34h1.6v3.21H44Z" transform="translate(-8.296 -6.32)" fill="#5368f1"/><path d="M56.025,5.8a.8.8,0,0,0-.8-.8H48.8a.8.8,0,0,0-.8.8v3.21a.8.8,0,0,0,.8.8h6.42a.8.8,0,0,0,.8-.8ZM54.42,8.21H49.6V6.6H54.42Z" transform="translate(-9.086 -0.593)" fill="#5368f1"/><path d="M48.8,23.815h6.42a.8.8,0,0,0,.8-.8V19.8a.8.8,0,0,0-.8-.8H48.8a.8.8,0,0,0-.8.8v3.21A.8.8,0,0,0,48.8,23.815Zm.8-3.21H54.42v1.6H49.6Z" transform="translate(-9.086 -3.358)" fill="#5368f1"/><path d="M48.8,37.815h6.42a.8.8,0,0,0,.8-.8V33.8a.8.8,0,0,0-.8-.8H48.8a.8.8,0,0,0-.8.8v3.21A.8.8,0,0,0,48.8,37.815Zm.8-3.21H54.42v1.6H49.6Z" transform="translate(-9.086 -6.123)" fill="#5368f1"/></g></svg>