<svg xmlns="http://www.w3.org/2000/svg" width="31.843" height="38.471" viewBox="0 0 31.843 38.471"><g transform="translate(-44.107)"><path d="M77.785,36.224h14.5a.564.564,0,1,0,0-1.127h-14.5a.564.564,0,1,0,0,1.127Z" transform="translate(-30.626 -32.46)" fill="#5368f1"/><path d="M77.785,68.679h14.5a.564.564,0,1,0,0-1.127h-14.5a.564.564,0,1,0,0,1.127Z" transform="translate(-30.626 -62.476)" fill="#5368f1"/><path d="M77.785,172.483h14.5a.564.564,0,1,0,0-1.127h-14.5a.564.564,0,1,0,0,1.127Z" transform="translate(-30.626 -158.48)" fill="#5368f1"/><path d="M77.785,204.938h14.5a.564.564,0,1,0,0-1.127h-14.5a.564.564,0,1,0,0,1.127Z" transform="translate(-30.626 -188.497)" fill="#5368f1"/><path d="M92.287,307.615h-14.5a.564.564,0,1,0,0,1.127h14.5a.564.564,0,1,0,0-1.127Z" transform="translate(-30.626 -284.501)" fill="#5368f1"/><path d="M92.287,340.07h-14.5a.564.564,0,1,0,0,1.127h14.5a.564.564,0,1,0,0-1.127Z" transform="translate(-30.626 -314.517)" fill="#5368f1"/><path d="M73.866,8.84A2.086,2.086,0,0,0,75.95,6.756V2.084A2.086,2.086,0,0,0,73.866,0H46.191a2.086,2.086,0,0,0-2.084,2.084V3.1a.564.564,0,1,0,1.127,0V2.084a.958.958,0,0,1,.957-.957H73.866a.958.958,0,0,1,.957.957V6.756a.958.958,0,0,1-.957.957H46.191a.958.958,0,0,1-.957-.957V5.738a.564.564,0,0,0-1.127,0V6.756A2.086,2.086,0,0,0,46.191,8.84h.4v1.365h-.4a2.086,2.086,0,0,0-2.084,2.084v4.672a2.086,2.086,0,0,0,2.084,2.084h.4V20.41h-.4a2.086,2.086,0,0,0-2.084,2.084v4.672a2.086,2.086,0,0,0,2.084,2.084H58.277v2.782a1,1,0,0,0-.617.92v.782H56.09a1,1,0,0,0-.92.617H45.048a.942.942,0,0,0-.941.941v1.621a.942.942,0,0,0,.941.941H55.17a1,1,0,0,0,.92.617H63.9a1,1,0,0,0,.92-.617h10.19a.942.942,0,0,0,.941-.941V35.292a.942.942,0,0,0-.941-.941H64.819a1,1,0,0,0-.92-.617H62.4v-.782a1,1,0,0,0-.617-.92V29.25H73.866a2.086,2.086,0,0,0,2.084-2.084V26.148a.564.564,0,0,0-1.127,0v1.018a.958.958,0,0,1-.957.957H46.191a.958.958,0,0,1-.957-.957V22.494a.958.958,0,0,1,.957-.957H73.866a.958.958,0,0,1,.957.957v1.018a.564.564,0,0,0,1.127,0V22.494a2.086,2.086,0,0,0-2.084-2.084h-.2V19.045h.2a2.086,2.086,0,0,0,2.084-2.084V12.289a2.086,2.086,0,0,0-2.084-2.084h-.2V8.84h.2ZM45.234,35.478h9.86v1.249h-9.86Zm29.589,1.249H64.894V35.478h9.929ZM63.767,34.861v2.484H56.222V34.861h2a.564.564,0,0,0,.564-.564V33.084H61.27V34.3a.564.564,0,0,0,.564.564Zm-3.114-2.9H59.4V29.25h1.249ZM72.535,20.41H47.722V19.045H72.535V20.41Zm2.288-8.121v4.672a.958.958,0,0,1-.957.957H46.191a.958.958,0,0,1-.957-.957V12.289a.958.958,0,0,1,.957-.957H73.866a.958.958,0,0,1,.957.957ZM72.535,10.2H47.722V8.84H72.535V10.2Z" fill="#5368f1"/><path d="M373.32,30.6a2.293,2.293,0,1,0-2.293,2.293A2.3,2.3,0,0,0,373.32,30.6Zm-3.459,0a1.166,1.166,0,1,1,1.166,1.166A1.167,1.167,0,0,1,369.861,30.6Z" transform="translate(-300.235 -26.179)" fill="#5368f1"/><path d="M371.027,168.689a2.293,2.293,0,1,0-2.293-2.293A2.3,2.3,0,0,0,371.027,168.689Zm0-3.459a1.166,1.166,0,1,1-1.166,1.166A1.167,1.167,0,0,1,371.027,165.23Z" transform="translate(-300.235 -151.772)" fill="#5368f1"/><path d="M368.734,302.229a2.293,2.293,0,1,0,2.293-2.293A2.3,2.3,0,0,0,368.734,302.229Zm3.459,0a1.166,1.166,0,1,1-1.166-1.166A1.167,1.167,0,0,1,372.193,302.229Z" transform="translate(-300.235 -277.399)" fill="#5368f1"/></g></svg>