<svg xmlns="http://www.w3.org/2000/svg" width="46.161" height="46.162" viewBox="0 0 46.161 46.162"><g transform="translate(-0.006)" opacity="0.6"><g transform="translate(0.006 0)"><path d="M266.367,360.013h-7.543a.9.9,0,0,0,0,1.8h7.543a.9.9,0,0,0,0-1.8Z" transform="translate(-234.669 -327.555)" fill="#1c2633"/><path d="M394.608,360.016a.9.9,0,1,0,.637.264A.9.9,0,0,0,394.608,360.016Z" transform="translate(-358.211 -327.558)" fill="#1c2633"/><path d="M446.988,360.016a.9.9,0,1,0,.637.264A.9.9,0,0,0,446.988,360.016Z" transform="translate(-405.868 -327.558)" fill="#1c2633"/><path d="M46.167,23.262a2.708,2.708,0,0,0-2.7-2.7H36.52V15.012a.9.9,0,0,0-.9-.9H33.5a15.643,15.643,0,0,0-1.53-3.692l1.5-1.5a.9.9,0,0,0,0-1.275l-4.59-4.59a.9.9,0,0,0-1.275,0l-1.5,1.5A15.644,15.644,0,0,0,22.41,3.025V.9a.9.9,0,0,0-.9-.9H15.018a.9.9,0,0,0-.9.9V3.025a15.642,15.642,0,0,0-3.691,1.529l-1.5-1.5a.9.9,0,0,0-1.275,0l-4.59,4.59a.9.9,0,0,0,0,1.275l1.5,1.5a15.647,15.647,0,0,0-1.53,3.692H.908a.9.9,0,0,0-.9.9V21.5a.9.9,0,0,0,.9.9H3.028A15.636,15.636,0,0,0,4.558,26.1l-1.5,1.5a.9.9,0,0,0,0,1.275l4.59,4.59a.9.9,0,0,0,1.275,0l1.5-1.5a15.636,15.636,0,0,0,3.694,1.531v2.119a.9.9,0,0,0,.9.9h4.291a2.709,2.709,0,0,0,2.516,1.714h9.917v1.939A3.079,3.079,0,0,0,29.713,42.2H20.021a.9.9,0,1,0,0,1.8h9.692a3.065,3.065,0,0,0,5.86,0h9.692a.9.9,0,1,0,0-1.8H35.573a3.079,3.079,0,0,0-2.028-2.028V38.228h9.917a2.708,2.708,0,0,0,2.7-2.7V31.2a2.693,2.693,0,0,0-.691-1.8,2.694,2.694,0,0,0,.691-1.8Zm-13.524,21.1A1.262,1.262,0,1,1,33.905,43.1,1.264,1.264,0,0,1,32.643,44.359Zm11.721-21.1V27.59a.9.9,0,0,1-.9.9H21.824a.9.9,0,0,1-.9-.9V23.262a.9.9,0,0,1,.9-.9H43.462A.9.9,0,0,1,44.364,23.262Zm-29.15,8.645a13.863,13.863,0,0,1-4.445-1.842.9.9,0,0,0-1.121.123L8.286,31.549,4.971,28.234l1.361-1.361a.9.9,0,0,0,.123-1.121,13.866,13.866,0,0,1-1.841-4.445.9.9,0,0,0-.88-.706H1.809V15.913H3.735a.9.9,0,0,0,.88-.706,13.865,13.865,0,0,1,1.842-4.443.9.9,0,0,0-.123-1.121L4.971,8.28,8.286,4.965,9.649,6.329a.9.9,0,0,0,1.121.123,13.866,13.866,0,0,1,4.443-1.841.9.9,0,0,0,.706-.88V1.8h4.688V3.731a.9.9,0,0,0,.706.88,13.866,13.866,0,0,1,4.443,1.841.9.9,0,0,0,1.121-.123L28.24,4.965,31.555,8.28,30.192,9.643a.9.9,0,0,0-.123,1.121,13.865,13.865,0,0,1,1.842,4.443.9.9,0,0,0,.88.706h1.926v4.644H27.565A9.581,9.581,0,0,0,9.73,13.9a.9.9,0,1,0,1.605.821,7.777,7.777,0,0,1,14.357,5.833H21.824a2.708,2.708,0,0,0-2.7,2.7v2.725a7.889,7.889,0,0,1-.857.048,7.75,7.75,0,0,1-6.928-4.241.9.9,0,0,0-1.605.821,9.546,9.546,0,0,0,8.534,5.223c.289,0,.578-.014.865-.039a2.694,2.694,0,0,0,.682,1.594,2.694,2.694,0,0,0-.691,1.8v3.515h-3.2V32.787A.9.9,0,0,0,15.214,31.907Zm29.15,3.616a.9.9,0,0,1-.9.9H21.824a.9.9,0,0,1-.9-.9V31.2a.9.9,0,0,1,.9-.9H43.462a.9.9,0,0,1,.9.9Z" transform="translate(-0.006 0)" fill="#1c2633"/><path d="M266.367,272.013h-7.543a.9.9,0,1,0,0,1.8h7.543a.9.9,0,0,0,0-1.8Z" transform="translate(-234.669 -247.489)" fill="#1c2633"/><path d="M393.97,273.555a.9.9,0,1,0-.264-.637A.908.908,0,0,0,393.97,273.555Z" transform="translate(-358.211 -247.492)" fill="#1c2633"/><path d="M446.988,273.819a.9.9,0,1,0-.637-.264A.911.911,0,0,0,446.988,273.819Z" transform="translate(-405.868 -247.492)" fill="#1c2633"/><path d="M98.049,193.418a.9.9,0,1,0-.264.637A.911.911,0,0,0,98.049,193.418Z" transform="translate(-87.569 -175.159)" fill="#1c2633"/></g></g></svg>