<svg xmlns="http://www.w3.org/2000/svg" width="50.147" height="50.259" viewBox="0 0 50.147 50.259"><defs><style>.a{fill:#fff;}</style></defs><g transform="translate(-0.569)"><g transform="translate(0.569)"><g transform="translate(0)"><path class="a" d="M49.983,9.324H30.249a16.22,16.22,0,0,0,4.292-2.239,4.156,4.156,0,0,0,0-5.861,4.131,4.131,0,0,0-5.848-.01c-.95.95-2.213,4.13-3.017,6.4-.8-2.267-2.075-5.45-3.017-6.4h0A3.984,3.984,0,0,0,19.754,0a4.086,4.086,0,0,0-2.915,1.211,4.172,4.172,0,0,0,0,5.874,16.263,16.263,0,0,0,4.3,2.239H1.407a.789.789,0,0,0-.838.733V49.421a.877.877,0,0,0,.838.838H49.983a.789.789,0,0,0,.733-.838V10.057A.7.7,0,0,0,49.983,9.324Zm-20.18-7a2.565,2.565,0,0,1,3.627,3.627c-.709.709-3.917,1.971-6.491,2.864C27.832,6.238,29.094,3.031,29.8,2.321ZM17.959,5.949a2.565,2.565,0,1,1,3.627-3.627h0c.709.709,1.971,3.916,2.864,6.491C21.875,7.92,18.667,6.657,17.959,5.949ZM49.145,48.688H2.139V10.895H49.145V48.688Z" transform="translate(-0.569)"/></g></g><g transform="translate(10.63 15.061)"><path class="a" d="M131.323,172.5a6.466,6.466,0,0,0-6.624-1.577l-3.1-3.1,2.881-2.881,4.5-3.5.011-.009.032-.027.031-.029.027-.029.029-.033.009-.01,3.533-4.543a.785.785,0,0,0-.064-1.037l-2.019-2.019a.785.785,0,0,0-1.037-.065l-4.543,3.533-.01.009-.033.028-.03.028-.028.03-.028.033-.009.01-3.5,4.5-2.881,2.881-2.734-2.734a6.5,6.5,0,0,0-8.705-8.012.785.785,0,0,0-.249,1.278l3.4,3.4-1.918,1.918-3.4-3.4a.785.785,0,0,0-1.278.249A6.5,6.5,0,0,0,111.6,166.1l2.734,2.734-1.58,1.58a2.215,2.215,0,0,0-2.471.452l-6.562,6.562a2.213,2.213,0,0,0,0,3.129l2.019,2.019a2.213,2.213,0,0,0,3.129,0l3.077-3.077a.785.785,0,0,0-1.11-1.11l-3.077,3.077a.642.642,0,0,1-.909,0l-2.019-2.019a.642.642,0,0,1,0-.909l6.562-6.562a.643.643,0,0,1,.909,0L114.321,174a.643.643,0,0,1,0,.909l-1.551,1.551a.785.785,0,0,0,1.11,1.11l1.551-1.551a2.215,2.215,0,0,0,.452-2.471l1.58-1.58,3.1,3.1a6.491,6.491,0,0,0,8.706,8.012.785.785,0,0,0,.249-1.278l-3.483-3.483,1.918-1.918,3.483,3.483a.785.785,0,0,0,1.278-.249A6.469,6.469,0,0,0,131.323,172.5Zm-1.369-17.193,1.039,1.039-2.562,3.293-1.771-1.771Zm-4.4,3.672,1.771,1.771-3.294,2.562-1.039-1.039Zm-3.607,4.469.908.908-2.36,2.36-.908-.908Zm-7.066,8.883-.908-.908,1.476-1.476.908.908Zm16.725,5.5-3.1-3.1a.785.785,0,0,0-1.11,0l-3.029,3.028a.785.785,0,0,0,0,1.11l3.1,3.1a4.927,4.927,0,0,1-5.268-6.8.785.785,0,0,0-.168-.861l-9.675-9.675a.785.785,0,0,0-.861-.168,4.927,4.927,0,0,1-6.8-5.268l3.013,3.013a.785.785,0,0,0,1.11,0l3.028-3.028a.785.785,0,0,0,0-1.11l-3.013-3.013a4.927,4.927,0,0,1,5.268,6.8.785.785,0,0,0,.168.861l9.675,9.675a.785.785,0,0,0,.861.168,4.927,4.927,0,0,1,6.8,5.268Z" transform="translate(-103.069 -153.434)"/></g></g></svg>