<svg xmlns="http://www.w3.org/2000/svg" width="42.86" height="50.258" viewBox="0 0 42.86 50.258"><defs><style>.a{fill:#fff;}</style></defs><g transform="translate(-37.681 0)"><g transform="translate(37.681 0)"><g transform="translate(0 0)"><path class="a" d="M79.763,8.678A83.6,83.6,0,0,1,59.649.147a1.057,1.057,0,0,0-1.075,0A81.311,81.311,0,0,1,38.459,8.678a1.057,1.057,0,0,0-.778,1.02V20.5a31.076,31.076,0,0,0,9.437,22.7c4.635,4.541,10.033,7.053,11.994,7.053S66.47,47.746,71.1,43.2a31.076,31.076,0,0,0,9.436-22.7V9.7A1.057,1.057,0,0,0,79.763,8.678ZM78.427,20.5a29,29,0,0,1-8.8,21.195c-4.558,4.466-9.431,6.449-10.514,6.449S53.155,46.16,48.6,41.694A29,29,0,0,1,39.8,20.5v-10A83.26,83.26,0,0,0,59.112,2.282,85.9,85.9,0,0,0,78.427,10.5Z" transform="translate(-37.681 0)"/><path class="a" d="M88.2,99.613a1.057,1.057,0,0,0-1.371-.6c-1.889.744-3.827,1.429-5.761,2.036a1.057,1.057,0,0,0-.741,1.009v4.083a1.057,1.057,0,1,0,2.114,0v-3.31c1.735-.561,3.469-1.183,5.163-1.85A1.057,1.057,0,0,0,88.2,99.613Z" transform="translate(-76.141 -89.231)"/><path class="a" d="M171.262,88.326a1.058,1.058,0,0,0,.424-.089l.019-.008a1.057,1.057,0,1,0-.854-1.934l-.017.007a1.057,1.057,0,0,0,.427,2.024Z" transform="translate(-157.194 -77.743)"/><path class="a" d="M311.281,345.7a1.057,1.057,0,0,0-1.463.307,25.732,25.732,0,0,1-3.038,3.795,27,27,0,0,1-3.032,2.7,1.057,1.057,0,1,0,1.282,1.681,29.137,29.137,0,0,0,3.27-2.91,27.817,27.817,0,0,0,3.288-4.108A1.057,1.057,0,0,0,311.281,345.7Z" transform="translate(-277.255 -311.611)"/><path class="a" d="M277.152,432.111l-.061.036a1.057,1.057,0,1,0,1.059,1.83l.07-.041a1.057,1.057,0,1,0-1.068-1.824Z" transform="translate(-253.115 -389.564)"/><path class="a" d="M128.688,162.395a3.438,3.438,0,0,0-4.862,4.862l6.243,6.242a3.439,3.439,0,0,0,4.862,0l13.032-13.032a3.438,3.438,0,0,0-4.862-4.862l-10.6,10.6ZM144.6,157.1a1.323,1.323,0,1,1,1.872,1.872L133.436,172a1.324,1.324,0,0,1-1.872,0l-6.242-6.242a1.323,1.323,0,0,1,1.872-1.872l4.559,4.559a1.057,1.057,0,0,0,1.495,0Z" transform="translate(-114.464 -139.424)"/></g></g></g></svg>