<svg xmlns="http://www.w3.org/2000/svg" width="50.257" height="50.257" viewBox="0 0 50.257 50.257"><defs><style>.a{fill:#fff;}</style></defs><g transform="translate(0 0)"><path class="a" d="M37.863,432H32.838a.838.838,0,0,0,0,1.675h5.026a.838.838,0,0,0,0-1.675Zm0,0" transform="translate(-28.65 -386.769)"/><path class="a" d="M384.838,432a.838.838,0,0,0,0,1.675h5.026a.838.838,0,0,0,0-1.675Zm0,0" transform="translate(-343.795 -386.769)"/><path class="a" d="M47.744,23.453H30.992V17.822L35.9,9.645a.836.836,0,0,0,.06-.742L32.607.527A.838.838,0,0,0,31.829,0h-3.35a.838.838,0,0,0-.838.838V7.385L25.128,9.74,22.616,7.385V.838A.838.838,0,0,0,21.778,0h-3.35a.838.838,0,0,0-.778.527L14.3,8.9a.836.836,0,0,0,.06.742l4.906,8.177v5.631H2.513A2.516,2.516,0,0,0,0,25.966V49.419a.838.838,0,0,0,.838.838H49.419a.838.838,0,0,0,.838-.838V25.966a2.516,2.516,0,0,0-2.513-2.513ZM18.994,1.675H20.94V7.748a.838.838,0,0,0,.265.611l3.35,3.141a.836.836,0,0,0,1.145,0l3.35-3.141a.838.838,0,0,0,.265-.611V1.675h1.946l2.986,7.464L29.68,16.752h-9.1L16.009,9.139ZM20.94,18.427h8.376v5.026H27.641V20.94a.838.838,0,1,0-1.675,0v2.513H20.94ZM1.675,25.966a.838.838,0,0,1,.838-.838H47.744a.838.838,0,0,1,.838.838v5.863H43.556V29.316a.838.838,0,0,0-.838-.838h-6.7a.838.838,0,0,0-.838.838v2.513h-20.1V29.316a.838.838,0,0,0-.838-.838h-6.7a.838.838,0,0,0-.838.838v2.513H1.675ZM41.881,35.18H36.855V30.154h5.026Zm-5.026,1.675h5.026V38.53H36.855ZM13.4,35.18H8.376V30.154H13.4ZM8.376,36.855H13.4V38.53H8.376ZM48.581,48.581H1.675V33.5H6.7v5.863a.838.838,0,0,0,.838.838h6.7a.838.838,0,0,0,.838-.838V33.5h20.1v5.863a.838.838,0,0,0,.838.838h6.7a.838.838,0,0,0,.838-.838V33.5h5.026Zm0,0"/></g></svg>