<svg xmlns="http://www.w3.org/2000/svg" width="13.859" height="13.859" viewBox="0 0 13.859 13.859"><defs><style>.a{fill:#167ee6;}.b{fill:#12b347;}.c{fill:#0f993e;}.d{fill:#ffd500;}.e{fill:#ff4b26;}.f{fill:#d93f21;}</style></defs><path class="a" d="M273.236,211.479h-5.653a.452.452,0,0,0-.452.452v1.806a.452.452,0,0,0,.452.452h3.183a4.25,4.25,0,0,1-1.829,2.144l1.357,2.35a6.8,6.8,0,0,0,3.465-5.942,4.581,4.581,0,0,0-.078-.887A.454.454,0,0,0,273.236,211.479Z" transform="translate(-259.9 -205.755)"/><path class="b" d="M40.409,335.958a4.217,4.217,0,0,1-3.648-2.111l-2.35,1.354a6.924,6.924,0,0,0,9.463,2.54v0l-1.357-2.35A4.186,4.186,0,0,1,40.409,335.958Z" transform="translate(-33.48 -324.81)"/><path class="c" d="M259.465,393.132v0l-1.357-2.35a4.187,4.187,0,0,1-2.107.57v2.712A6.918,6.918,0,0,0,259.465,393.132Z" transform="translate(-249.071 -380.201)"/><path class="d" d="M2.712,131.581a4.187,4.187,0,0,1,.57-2.107l-2.35-1.354a6.9,6.9,0,0,0,0,6.923l2.35-1.354A4.187,4.187,0,0,1,2.712,131.581Z" transform="translate(0 -124.651)"/><path class="e" d="M40.409,2.712a4.2,4.2,0,0,1,2.678.961.45.45,0,0,0,.606-.027l1.28-1.28a.455.455,0,0,0-.026-.666A6.914,6.914,0,0,0,34.411,3.468l2.35,1.354A4.217,4.217,0,0,1,40.409,2.712Z" transform="translate(-33.48)"/><path class="f" d="M258.678,3.673a.45.45,0,0,0,.606-.027l1.28-1.28a.455.455,0,0,0-.026-.666A6.909,6.909,0,0,0,256,0V2.712A4.2,4.2,0,0,1,258.678,3.673Z" transform="translate(-249.071)"/></svg>