<svg xmlns="http://www.w3.org/2000/svg" width="45.803" height="45.786" viewBox="0 0 45.803 45.786"><path d="M37.987,11.858a.673.673,0,1,0,.011.016l-.011-.016ZM36.5,27.021l-.015.02a.673.673,0,0,0,.526,1.067.663.663,0,0,0,.559-.277h0a.671.671,0,0,0-1.07-.809Zm-2.284-18.2a.671.671,0,0,0-.191-.929l-.007,0a.667.667,0,0,0-.926.194.675.675,0,0,0,.195.932.671.671,0,0,0,.929-.191Zm-1.5,21.605a.671.671,0,1,0,.676,1.159l.008,0a.667.667,0,0,0,.237-.915A.675.675,0,0,0,32.717,30.431Zm7.361-13.354a.671.671,0,0,0-1.321.239l0,.009a.671.671,0,0,0,1.321-.239ZM37.8,24.824l-.011.024a.678.678,0,1,0,.011-.024ZM36.22,9.691,36.2,9.675a.675.675,0,1,0,.016.016ZM34.784,28.916l-.017.015A.672.672,0,0,0,35.2,30.1a.664.664,0,0,0,.471-.178h0a.671.671,0,1,0-.892-1ZM40.1,5.8A19.463,19.463,0,0,0,8.918,10.888l-.227-.227C7.213,9.18,5.39,10.1,3.95,11.19l-.04.033A11,11,0,0,0,.262,22.009a.671.671,0,1,0,1.31-.292,9.656,9.656,0,0,1,2.759-9.069l7.144,7.144-.934.576A2.788,2.788,0,0,0,9.421,23.82,23.263,23.263,0,0,0,22.088,36.483,2.784,2.784,0,0,0,25.53,35.36l.577-.935,7.143,7.143a9.656,9.656,0,0,1-9.069,2.759,30.146,30.146,0,0,1-14.269-8.34A31.658,31.658,0,0,1,2.288,24.222a.671.671,0,1,0-1.267.441A33,33,0,0,0,8.964,36.936a31.5,31.5,0,0,0,14.926,8.7,11.3,11.3,0,0,0,11.752-4.979,2.79,2.79,0,0,0-.4-3.45l-5.181-5.181a2.8,2.8,0,0,0-4.364.51l-1.306,2.118a1.447,1.447,0,0,1-1.788.587A21.922,21.922,0,0,1,10.661,23.307a1.451,1.451,0,0,1,.584-1.8l2.117-1.305a2.8,2.8,0,0,0,.511-4.364L9.923,11.893a18.106,18.106,0,0,1,3.144-4.667l.568.568a.671.671,0,1,0,.949-.949l-.567-.567A18.12,18.12,0,0,1,25.673,1.45V2.1a.671.671,0,1,0,1.342,0V1.452A18.048,18.048,0,0,1,38.665,6.285l-.56.56a.671.671,0,0,0,.949.949l.56-.56a18.048,18.048,0,0,1,4.834,11.649H43.8a.671.671,0,1,0,0,1.342h.649a18.056,18.056,0,0,1-4.825,11.658l-.574-.574a.671.671,0,0,0-.949.949l.572.572a18.288,18.288,0,0,1-2.417,1.892.671.671,0,1,0,.735,1.123A19.462,19.462,0,0,0,40.1,5.8ZM26.836,33.242a1.458,1.458,0,0,1,2.273-.266l5.181,5.181a1.453,1.453,0,0,1,.212,1.794l0,0c-.123.2-.252.391-.387.579L26.83,33.251ZM12.923,16.791a1.458,1.458,0,0,1-.266,2.272l-.009.005L5.366,11.787c.187-.135.38-.265.579-.387a1.453,1.453,0,0,1,1.8.21Zm27.366,3.142v-.009s0-.007,0-.01,0-.007,0-.01v-.009a.671.671,0,0,0-1.341-.036v.009s0,.007,0,.01,0,.007,0,.01V19.9a.671.671,0,1,0,1.341.036ZM29.939,23.6h0a.671.671,0,0,0,.671-.669l0-1.288H30.8a.671.671,0,0,0,0-1.342h-.185l.01-3.8a.677.677,0,0,0-.671-.673h-.75a.671.671,0,0,0-.582.337l-2.569,4.477a.671.671,0,0,0,.582,1h2.634l0,1.285a.671.671,0,0,0,.669.673ZM27.8,20.3l1.486-2.59-.007,2.59Zm11.461,2.951a.675.675,0,1,0-.633-.834l-.006.028a.671.671,0,0,0,.521.793A.685.685,0,0,0,39.258,23.251Zm.045-8.88a.671.671,0,1,0-1.251.485l.008.021a.676.676,0,0,0,.606.418.67.67,0,0,0,.637-.923Zm-26.388,9a.671.671,0,0,0,1.292-.362l-.008-.026a.671.671,0,0,0-1.285.388Zm1.052,2.634a.673.673,0,1,0-.014-.027Zm-.976-5.455h-.008l.108-.007ZM25.529,23.6a.671.671,0,0,0,0-1.342l-2.153-.007c.392-.5.945-1.24,1.681-2.291a4.187,4.187,0,0,0,.854-2,2.366,2.366,0,0,0-4.686-.543.671.671,0,1,0,1.317.259,1.027,1.027,0,0,1,1.007-.827.981.981,0,0,1,1,1.162,3.741,3.741,0,0,1-.594,1.176,31.849,31.849,0,0,1-2.309,3.045c-.41.435-.175,1.357.483,1.354l3.393.01h0ZM16.982,11.087A.671.671,0,1,0,16,10.171l-.016.018a.672.672,0,0,0,.481,1.121A.665.665,0,0,0,16.982,11.087Zm2.051-2.649a.671.671,0,0,0-.936-.154l-.014.01A.67.67,0,0,0,18.465,9.5a.672.672,0,0,0,.567-1.063ZM16.018,28.6a.671.671,0,0,0,.542-1.09l-.019-.023a.671.671,0,1,0-.522,1.113Zm-.551-15.455.011-.018a.671.671,0,1,0-1.159-.676h0a.671.671,0,1,0,1.149.693ZM18.36,29.316l-.013-.011a.671.671,0,0,0-.841,1.045l0,0a.671.671,0,1,0,.852-1.036ZM21.414,7.191a.671.671,0,0,0-.887-.336l-.016.007a.671.671,0,1,0,.9.328Zm-.931,23.531a.671.671,0,1,0-.632,1.183l.016.008a.671.671,0,0,0,.617-1.192ZM31.9,7.455a.673.673,0,0,0-.375-.871h0a.671.671,0,0,0-.5,1.243l.017.007a.668.668,0,0,0,.865-.379ZM22.016,32.13a.671.671,0,0,0,.46.83l.009,0a.666.666,0,0,0,.826-.461.673.673,0,0,0-1.294-.371ZM28.675,7.14a.671.671,0,0,0,.136-1.331l-.012,0a.667.667,0,0,0-.772.545.675.675,0,0,0,.648.789Zm-5.348.13a.671.671,0,1,0-.13-1.325l-.009,0a.67.67,0,0,0,.139,1.323Zm2.7-.335h.009a.671.671,0,0,0-.042-1.341h-.009a.671.671,0,0,0,.007,1.341h.035Z" transform="translate(0 -0.096)" fill="#fff"/></svg>