<svg xmlns="http://www.w3.org/2000/svg" width="43.657" height="43.656" viewBox="0 0 43.657 43.656"><path d="M31.86,43.657H11.8a1.921,1.921,0,0,1-1.919-1.919V35.173A1.921,1.921,0,0,1,11.8,33.254h3.893c.755,0,1.093-.462,1.487-1.114l.043-.071A2.732,2.732,0,0,1,19.841,30.7H31.86a1.911,1.911,0,0,1,.64.11v-.749a.64.64,0,0,0-.64-.639H19.841a2.733,2.733,0,0,1-2.623-1.373c-.4-.664-.728-1.1-1.53-1.1H11.8a.64.64,0,0,0-.64.639v3.752a.639.639,0,0,1-.64.64H9.307A9.307,9.307,0,0,1,4.432,14.74a12.148,12.148,0,0,1,1.8-9.419.64.64,0,1,1,1.058.718A10.868,10.868,0,0,0,5.784,14.89a.64.64,0,0,1-.312.724A8.029,8.029,0,0,0,9.307,30.7h.572V27.584A1.921,1.921,0,0,1,11.8,25.665h3.893a2.92,2.92,0,0,1,2.623,1.715,1.471,1.471,0,0,0,1.53.758h2.807A3.712,3.712,0,0,0,26.24,25.9a3.529,3.529,0,0,0-.723-3.865l-2.282-2.282v1.968a.64.64,0,0,1-1.279,0V18.2a.639.639,0,0,1,.639-.639h3.512a.64.64,0,1,1,0,1.279H24.14l2.282,2.282a4.893,4.893,0,0,1-.23,7.012H31.86a1.921,1.921,0,0,1,1.919,1.919V41.738A1.921,1.921,0,0,1,31.86,43.657ZM11.8,34.533a.64.64,0,0,0-.64.64v6.566a.64.64,0,0,0,.64.64H31.86a.64.64,0,0,0,.64-.64V32.615a.64.64,0,0,0-.64-.639H19.841a1.471,1.471,0,0,0-1.53.758l-.041.068a2.951,2.951,0,0,1-2.581,1.732Zm24.194-2.558H35.7a.64.64,0,1,1,0-1.279h.294a6.386,6.386,0,0,0,0-12.773.639.639,0,0,1-.64-.639,7.006,7.006,0,0,0-7-7,7.137,7.137,0,0,0-.789.044.639.639,0,0,1-.7-.5A10.844,10.844,0,0,0,9,4.077a.639.639,0,1,1-.858-.949A12.124,12.124,0,0,1,27.987,9.014q.184-.008.366-.008a8.288,8.288,0,0,1,8.255,7.663,7.666,7.666,0,0,1-.617,15.306Zm-19.62-14.24a5.756,5.756,0,1,1,5.756-5.756A5.762,5.762,0,0,1,16.371,17.736Zm0-10.232a4.477,4.477,0,1,0,4.477,4.477A4.482,4.482,0,0,0,16.371,7.5Zm0,7.674a.639.639,0,0,1-.64-.64V12.619H13.813a.64.64,0,1,1,0-1.279h1.919V9.422a.64.64,0,0,1,1.279,0V11.34h1.919a.64.64,0,1,1,0,1.279H17.011v1.919A.639.639,0,0,1,16.371,15.177Z" transform="translate(0 0)" fill="#fff"/></svg>