<svg xmlns="http://www.w3.org/2000/svg" width="45.803" height="42.983" viewBox="0 0 45.803 42.983"><defs><style>.a{fill:#cd10e7;}</style></defs><path class="a" d="M70.347,24.563a1.275,1.275,0,0,0-1.315,1.229v2.873a1.275,1.275,0,0,0,1.315,1.229h2.179a1.275,1.275,0,0,0,1.315-1.229V25.792a1.275,1.275,0,0,0-1.315-1.229Zm2.144,4.069H70.382V25.825h2.109Z" transform="translate(-62.91 -22.497)"/><path class="a" d="M73.841,293.665v-2.873a1.275,1.275,0,0,0-1.315-1.229H70.347a1.275,1.275,0,0,0-1.315,1.229v2.873a1.275,1.275,0,0,0,1.315,1.229h2.179A1.275,1.275,0,0,0,73.841,293.665Zm-1.35-.033H70.382v-2.807h2.109Z" transform="translate(-62.91 -265.207)"/><path class="a" d="M70.347,162.395h2.179a1.275,1.275,0,0,0,1.315-1.229v-2.873a1.275,1.275,0,0,0-1.315-1.229H70.347a1.275,1.275,0,0,0-1.315,1.229v2.873A1.275,1.275,0,0,0,70.347,162.395Zm.035-4.069h2.109v2.807H70.382Z" transform="translate(-62.91 -143.853)"/><path class="a" d="M44.238,36.968H23.519v-.16a.992.992,0,0,0-1.032-.945h-.9v-1.9a.969.969,0,0,0-.81-.922V31.753h7.049v.607a2.042,2.042,0,0,0,2.1,1.968H42.021a2.042,2.042,0,0,0,2.1-1.968v-10.4a1.988,1.988,0,0,0-1.447-1.869V17.781a6.032,6.032,0,0,0-1.964-4.432,6.905,6.905,0,0,0-4.74-1.835,7.013,7.013,0,0,0-3.507.928,2.466,2.466,0,0,0-1.749-1.254V9.42a2.364,2.364,0,0,0,2-2.27V6.682a.676.676,0,0,0-1.35,0V7.15A1.091,1.091,0,0,1,30.245,8.2H6.174A1.091,1.091,0,0,1,5.049,7.15V2.313A1.091,1.091,0,0,1,6.174,1.262H30.245A1.091,1.091,0,0,1,31.37,2.313V3.738a.676.676,0,0,0,1.35,0V2.313A2.4,2.4,0,0,0,30.245,0H6.174A2.4,2.4,0,0,0,3.7,2.313V7.15a2.364,2.364,0,0,0,2,2.27v1.768a2.364,2.364,0,0,0-2,2.27v4.837a2.364,2.364,0,0,0,2,2.27v1.768a2.364,2.364,0,0,0-2,2.27V29.44a2.4,2.4,0,0,0,2.475,2.313H7.951a.632.632,0,1,0,0-1.262H6.174A1.091,1.091,0,0,1,5.049,29.44V24.6a1.091,1.091,0,0,1,1.125-1.051H27.823v6.939H11.1a.632.632,0,1,0,0,1.262h4.544v1.284a.969.969,0,0,0-.81.922v1.9h-.9a.992.992,0,0,0-1.032.945v.16H3.565a2.641,2.641,0,0,0-1.813.7A2.305,2.305,0,0,0,1,39.366a2.488,2.488,0,0,0,2.565,2.4H12.9v.275a.992.992,0,0,0,1.032.945h8.555a.992.992,0,0,0,1.032-.945v-.275H44.238a2.4,2.4,0,1,0,0-4.795Zm-1.462-4.608a.733.733,0,0,1-.755.707H29.928a.733.733,0,0,1-.755-.707v-10.4a.732.732,0,0,1,.755-.706H42.021a.732.732,0,0,1,.755.706Zm-4.341-12.37H33.514v-2.21a2.387,2.387,0,0,1,2.461-2.3,2.534,2.534,0,0,1,1.739.672,2.216,2.216,0,0,1,.722,1.628Zm1.325-5.75a4.818,4.818,0,0,1,1.569,3.54v2.21H39.785v-2.21a3.43,3.43,0,0,0-1.117-2.52,3.926,3.926,0,0,0-2.693-1.042,3.7,3.7,0,0,0-3.811,3.561v2.21H30.62v-2.21a5.2,5.2,0,0,1,5.355-5.006,5.515,5.515,0,0,1,3.785,1.465Zm-32.709-3.1V9.463H29.369v1.682Zm-2,7.15V13.458a1.091,1.091,0,0,1,1.125-1.051H30.245a1.11,1.11,0,0,1,1.1.845,6.063,6.063,0,0,0-2.078,4.53v1.565H6.174a1.091,1.091,0,0,1-1.125-1.051Zm2,4V20.608H28.4a1.894,1.894,0,0,0-.576,1.35v.332ZM3.565,40.5A1.179,1.179,0,0,1,2.35,39.366a1.092,1.092,0,0,1,.356-.8,1.251,1.251,0,0,1,.859-.333H12.9V40.5Zm15.86-8.748v1.262H17V31.753Zm2.745,9.968H14.25V37.126h.9a.992.992,0,0,0,1.032-.945v-1.9h4.049v1.9a.992.992,0,0,0,1.032.945h.9ZM44.238,40.5H23.519V38.23H44.238a1.138,1.138,0,1,1,0,2.271Z" transform="translate(-1 0)"/><path class="a" d="M366.823,279.123a2.058,2.058,0,0,0,.309-1.081,2.113,2.113,0,0,0-.773-1.616,2.436,2.436,0,0,0-1.808-.54,2.264,2.264,0,0,0-2.04,1.878,2.039,2.039,0,0,0,.29,1.358l-.44,3.665a.855.855,0,0,0,.235.7.986.986,0,0,0,.713.3h3.006a.986.986,0,0,0,.713-.3.854.854,0,0,0,.235-.694Zm-3.072,3.4.4-3.288a1.115,1.115,0,0,0-.171-.734.858.858,0,0,1-.125-.578.942.942,0,0,1,.849-.781,1.009,1.009,0,0,1,.759.225.885.885,0,0,1,.324.677.858.858,0,0,1-.132.457,1.119,1.119,0,0,0-.172.735l.4,3.288Z" transform="translate(-329.838 -252.668)"/></svg>