<svg xmlns="http://www.w3.org/2000/svg" width="42.402" height="42.386" viewBox="0 0 42.402 42.386"><defs><style>.a{opacity:0.91;}.b{fill:#ff7900;}</style></defs><g class="a"><path class="b" d="M35.166,10.984a.623.623,0,1,0,.01.015l-.01-.015ZM33.79,25.022l-.014.019a.623.623,0,0,0,.487.988.614.614,0,0,0,.517-.256h0a.621.621,0,0,0-.991-.749ZM31.676,8.177a.621.621,0,0,0-.177-.86l-.007,0a.618.618,0,0,0-.857.179.625.625,0,0,0,.18.863.621.621,0,0,0,.86-.177Zm-1.389,20a.621.621,0,1,0,.626,1.073l.007,0a.618.618,0,0,0,.22-.847A.625.625,0,0,0,30.288,28.178ZM37.1,15.816a.621.621,0,0,0-1.222.221v.008a.621.621,0,0,0,1.223-.221Zm-2.109,7.172-.011.023a.627.627,0,1,0,.011-.023ZM33.53,8.978l-.015-.015a.625.625,0,1,0,.015.015ZM32.2,26.776l-.015.014a.622.622,0,0,0,.4,1.079.615.615,0,0,0,.436-.165h0a.621.621,0,1,0-.826-.928Zm4.925-21.4a18.018,18.018,0,0,0-28.87,4.715l-.211-.211c-1.368-1.371-3.056-.523-4.389.49l-.037.03A10.186,10.186,0,0,0,.243,20.382a.621.621,0,1,0,1.212-.27,8.939,8.939,0,0,1,2.554-8.4l6.613,6.614-.865.533a2.581,2.581,0,0,0-1.036,3.195A21.535,21.535,0,0,0,20.448,33.781a2.577,2.577,0,0,0,3.187-1.04l.534-.866,6.613,6.613a8.939,8.939,0,0,1-8.4,2.554A27.908,27.908,0,0,1,9.177,33.322,29.307,29.307,0,0,1,2.118,22.43a.621.621,0,1,0-1.173.408A30.553,30.553,0,0,0,8.3,34.2a29.157,29.157,0,0,0,13.817,8.055,10.465,10.465,0,0,0,10.879-4.609,2.583,2.583,0,0,0-.374-3.193l-4.8-4.8a2.592,2.592,0,0,0-4.04.473l-1.209,1.961a1.34,1.34,0,0,1-1.655.543A20.294,20.294,0,0,1,9.869,21.584a1.343,1.343,0,0,1,.54-1.663l1.96-1.208a2.592,2.592,0,0,0,.473-4.04L9.186,11.017A16.762,16.762,0,0,1,12.1,6.7l.525.525a.621.621,0,1,0,.878-.878l-.525-.525A16.774,16.774,0,0,1,23.767,1.35v.6a.621.621,0,0,0,1.242,0v-.6A16.708,16.708,0,0,1,35.794,5.826l-.519.519a.621.621,0,0,0,.879.878l.519-.519a16.707,16.707,0,0,1,4.475,10.784h-.6a.621.621,0,0,0,0,1.242h.6A16.715,16.715,0,0,1,36.68,29.523l-.531-.531a.621.621,0,0,0-.878.878l.53.53a16.93,16.93,0,0,1-2.237,1.751.621.621,0,1,0,.681,1.039A18.016,18.016,0,0,0,37.126,5.372ZM24.843,30.781a1.35,1.35,0,0,1,2.1-.246l4.8,4.8a1.345,1.345,0,0,1,.2,1.661l0,0c-.113.184-.234.362-.358.536l-6.741-6.741ZM11.964,15.551a1.35,1.35,0,0,1-.246,2.1l-.008,0L4.968,10.919c.174-.125.352-.245.536-.359a1.345,1.345,0,0,1,1.663.195ZM37.3,18.46v-.008s0-.006,0-.01,0-.006,0-.01v-.008a.621.621,0,0,0-1.242-.034V18.4s0,.006,0,.01,0,.006,0,.01v.008a.621.621,0,1,0,1.242.034Zm-9.582,3.394h0a.621.621,0,0,0,.621-.619l0-1.193h.175a.621.621,0,1,0,0-1.242h-.171l.009-3.522a.626.626,0,0,0-.621-.623h-.694a.621.621,0,0,0-.539.312l-2.378,4.145a.621.621,0,0,0,.539.93H27.1l0,1.189a.621.621,0,0,0,.62.623ZM25.733,18.8l1.376-2.4L27.1,18.8Zm10.61,2.732a.625.625,0,1,0-.586-.773l-.006.026a.621.621,0,0,0,.482.734A.634.634,0,0,0,36.343,21.531Zm.042-8.221a.621.621,0,1,0-1.158.449l.008.02a.626.626,0,0,0,.561.387.621.621,0,0,0,.59-.855ZM11.956,21.645a.621.621,0,0,0,1.2-.335l-.007-.025a.621.621,0,0,0-1.189.359Zm.973,2.438a.623.623,0,1,0-.013-.025Zm-.9-5.05h-.007l.1-.006Zm11.607,2.821a.621.621,0,0,0,0-1.242l-1.993-.006c.363-.464.875-1.148,1.556-2.121a3.876,3.876,0,0,0,.79-1.848,2.191,2.191,0,0,0-4.338-.5.621.621,0,1,0,1.219.239.951.951,0,0,1,.932-.765.908.908,0,0,1,.929,1.075,3.463,3.463,0,0,1-.55,1.089,29.483,29.483,0,0,1-2.138,2.819c-.38.4-.162,1.257.447,1.253l3.141.01h0ZM15.721,10.271a.621.621,0,1,0-.908-.848L14.8,9.44a.622.622,0,0,0,.445,1.038A.615.615,0,0,0,15.721,10.271Zm1.9-2.452a.621.621,0,0,0-.867-.143l-.013.009A.62.62,0,0,0,17.094,8.8a.622.622,0,0,0,.525-.984ZM14.828,26.486a.621.621,0,0,0,.5-1.009l-.018-.022a.621.621,0,1,0-.484,1.031Zm-.51-14.308.01-.017a.621.621,0,1,0-1.073-.626h0a.621.621,0,1,0,1.064.641ZM17,27.146l-.012-.01a.621.621,0,0,0-.779.968h0a.621.621,0,1,0,.789-.96ZM19.824,6.664A.621.621,0,0,0,19,6.353l-.015.007a.621.621,0,1,0,.836.3Zm-.862,21.783a.621.621,0,1,0-.586,1.1l.014.008a.621.621,0,0,0,.571-1.1ZM29.529,6.909a.623.623,0,0,0-.347-.806h0a.621.621,0,1,0-.467,1.151l.016.006a.618.618,0,0,0,.8-.35ZM20.381,29.751a.621.621,0,0,0,.426.768l.008,0a.616.616,0,0,0,.764-.427.623.623,0,0,0-1.2-.343ZM26.546,6.617a.621.621,0,0,0,.126-1.232l-.011,0a.617.617,0,0,0-.714.5.625.625,0,0,0,.6.73Zm-4.951.12a.621.621,0,1,0-.121-1.227l-.008,0a.621.621,0,0,0,.129,1.225Zm2.5-.31H24.1a.621.621,0,0,0-.039-1.242h-.009a.621.621,0,0,0,.006,1.242h.033Z" transform="translate(0 -0.096)"/></g></svg>