<svg xmlns="http://www.w3.org/2000/svg" width="45.803" height="45.982" viewBox="0 0 45.803 45.982"><defs><style>.a{opacity:0.9;}.b{fill:#ff7900;}</style></defs><g class="a"><path class="b" d="M70.347,24.563a1.316,1.316,0,0,0-1.315,1.315v3.073a1.316,1.316,0,0,0,1.315,1.315h2.179a1.316,1.316,0,0,0,1.315-1.315V25.878a1.316,1.316,0,0,0-1.315-1.315Zm2.144,4.353H70.382v-3h2.109Z" transform="translate(-62.91 -22.353)"/><path class="b" d="M73.841,293.951v-3.073a1.316,1.316,0,0,0-1.315-1.315H70.347a1.316,1.316,0,0,0-1.315,1.315v3.073a1.316,1.316,0,0,0,1.315,1.315h2.179A1.316,1.316,0,0,0,73.841,293.951Zm-1.35-.035H70.382v-3h2.109Z" transform="translate(-62.91 -263.507)"/><path class="b" d="M70.347,162.767h2.179a1.316,1.316,0,0,0,1.315-1.315v-3.073a1.316,1.316,0,0,0-1.315-1.315H70.347a1.316,1.316,0,0,0-1.315,1.315v3.073A1.316,1.316,0,0,0,70.347,162.767Zm.035-4.353h2.109v3H70.382Z" transform="translate(-62.91 -142.93)"/><path class="b" d="M44.238,39.549H23.519v-.171a1.022,1.022,0,0,0-1.032-1.01h-.9V36.33a1.017,1.017,0,0,0-.81-.986V33.97h7.049v.65a2.108,2.108,0,0,0,2.1,2.106H42.021a2.108,2.108,0,0,0,2.1-2.106V23.491a2.108,2.108,0,0,0-1.447-2v-2.47a6.7,6.7,0,0,0-10.211-5.711,2.483,2.483,0,0,0-1.749-1.341V10.077a2.478,2.478,0,0,0,2-2.429v-.5a.675.675,0,1,0-1.35,0v.5a1.126,1.126,0,0,1-1.125,1.125H6.174A1.126,1.126,0,0,1,5.049,7.649V2.475A1.126,1.126,0,0,1,6.174,1.35H30.245A1.126,1.126,0,0,1,31.37,2.475V4a.675.675,0,1,0,1.35,0V2.475A2.477,2.477,0,0,0,30.245,0H6.174A2.477,2.477,0,0,0,3.7,2.475V7.649a2.479,2.479,0,0,0,2,2.429v1.892a2.478,2.478,0,0,0-2,2.429v5.174A2.479,2.479,0,0,0,5.7,22v1.892a2.478,2.478,0,0,0-2,2.429v5.174A2.477,2.477,0,0,0,6.174,33.97H7.951a.675.675,0,0,0,0-1.35H6.174a1.126,1.126,0,0,1-1.125-1.125V26.321A1.126,1.126,0,0,1,6.174,25.2H27.823V32.62H11.1a.675.675,0,0,0,0,1.35h4.544v1.374a1.017,1.017,0,0,0-.81.986v2.038h-.9a1.022,1.022,0,0,0-1.032,1.01v.171H3.565a2.565,2.565,0,1,0,0,5.129H12.9v.294a1.022,1.022,0,0,0,1.032,1.01h8.555a1.022,1.022,0,0,0,1.032-1.01v-.294H44.238a2.565,2.565,0,0,0,0-5.129Zm-1.462-4.929a.756.756,0,0,1-.755.756H29.928a.756.756,0,0,1-.755-.756V23.491a.756.756,0,0,1,.755-.755H42.021a.756.756,0,0,1,.755.755ZM38.435,21.386H33.514V19.022a2.461,2.461,0,1,1,4.921,0Zm1.325-6.151a5.324,5.324,0,0,1,1.569,3.787v2.364H39.785V19.022a3.81,3.81,0,0,0-7.621,0v2.364H30.62V19.022a5.355,5.355,0,0,1,9.14-3.787ZM7.051,11.923v-1.8H29.369v1.8Zm-2,7.649V14.4a1.126,1.126,0,0,1,1.125-1.125H30.245a1.127,1.127,0,0,1,1.1.9,6.684,6.684,0,0,0-2.078,4.846V20.7H6.174a1.126,1.126,0,0,1-1.125-1.125Zm2,4.274v-1.8H28.4a2.1,2.1,0,0,0-.576,1.444v.355ZM3.565,43.328a1.215,1.215,0,1,1,0-2.43H12.9v2.43Zm15.86-9.359v1.35H17V33.97Zm2.745,10.663H14.25V39.717h.9a1.022,1.022,0,0,0,1.032-1.01V36.669h4.049v2.038a1.022,1.022,0,0,0,1.032,1.01h.9Zm22.069-1.3H23.519V40.9H44.238a1.215,1.215,0,1,1,0,2.43Z" transform="translate(-1 0)"/><path class="b" d="M366.823,279.35a2.32,2.32,0,1,0-4.022,0l-.44,3.92a.954.954,0,0,0,.948,1.065h3.006a.955.955,0,0,0,.949-1.062Zm-3.072,3.635.4-3.517a1.26,1.26,0,0,0-.171-.785.97.97,0,1,1,1.675,0,1.263,1.263,0,0,0-.172.786l.4,3.517Z" transform="translate(-329.838 -251.049)"/></g></svg>