<svg xmlns="http://www.w3.org/2000/svg" width="43.231" height="43.231" viewBox="0 0 43.231 43.231"><defs><style>.a{fill:#ff7900;}</style></defs><path class="a" d="M66.093,58.094a2.162,2.162,0,0,0,2.162-2.162,2.208,2.208,0,0,0-.026-.259L70.359,54.6a2.157,2.157,0,0,0,3.66-1.552,2.209,2.209,0,0,0-.026-.259l2.131-1.071a2.148,2.148,0,0,0,3.527-.831h1.706a2.148,2.148,0,0,0,3.53.831l2.131,1.071a2.147,2.147,0,0,0,3.63,1.811l2.131,1.071a2.211,2.211,0,0,0-.026.259,2.172,2.172,0,1,0,.664-1.552L91.285,53.31a2.209,2.209,0,0,0,.026-.259,2.157,2.157,0,0,0-3.66-1.552l-2.131-1.071a2.209,2.209,0,0,0,.026-.259,2.156,2.156,0,0,0-4.19-.721H79.65a2.156,2.156,0,0,0-4.19.721,2.209,2.209,0,0,0,.026.259L73.355,51.5A2.157,2.157,0,0,0,69.7,53.05a2.211,2.211,0,0,0,.026.259l-2.131,1.071a2.162,2.162,0,1,0-1.5,3.713Zm28.821-2.882a.721.721,0,1,1-.721.721A.721.721,0,0,1,94.914,55.212ZM89.15,52.33a.721.721,0,1,1-.721.721A.721.721,0,0,1,89.15,52.33Zm-5.764-2.882a.721.721,0,1,1-.721.721A.721.721,0,0,1,83.386,49.448Zm-5.764,0a.721.721,0,1,1-.721.721A.721.721,0,0,1,77.621,49.448ZM71.857,52.33a.721.721,0,1,1-.721.721A.721.721,0,0,1,71.857,52.33Zm-5.764,2.882a.721.721,0,1,1-.721.721A.721.721,0,0,1,66.093,55.212Zm0,0" transform="translate(-58.168 -43.684)"/><path class="a" d="M41.069,0H2.162A2.162,2.162,0,0,0,0,2.162V28.1a2.162,2.162,0,0,0,2.162,2.162H14.41a3.6,3.6,0,1,1,0,7.205c-.009,0-.018,0-.027.006a1.9,1.9,0,0,0-.272.064.735.735,0,0,0-.121.081.742.742,0,0,0-.1.079,1.987,1.987,0,0,0-.144.239c0,.009-.01.014-.013.024L12.29,42.283a.72.72,0,0,0,.679.948H30.262a.721.721,0,0,0,.683-.948L29.5,37.96c0-.01-.01-.015-.013-.024a.76.76,0,0,0-.076-.133.4.4,0,0,0-.174-.186.705.705,0,0,0-.12-.081A.824.824,0,0,0,29,37.5a.694.694,0,0,0-.156-.031c-.01,0-.018-.006-.027-.006a3.6,3.6,0,1,1,0-7.205H41.069A2.162,2.162,0,0,0,43.231,28.1V2.162A2.162,2.162,0,0,0,41.069,0ZM23.777,33.864a5.051,5.051,0,0,0,4.515,5.015l.97,2.91H13.969l.97-2.91a5.038,5.038,0,0,0,2.994-8.618H25.3A5.023,5.023,0,0,0,23.777,33.864ZM41.79,28.1a.721.721,0,0,1-.721.721H2.162a.721.721,0,0,1-.721-.721V25.939H41.79ZM1.441,24.5V2.162a.721.721,0,0,1,.721-.721H41.069a.721.721,0,0,1,.721.721V24.5Zm0,0"/><path class="a" d="M68.026,45.69a.721.721,0,0,0-.721-.721H64.423a.721.721,0,0,0-.721.721v5.044H62.262V42.808a.721.721,0,0,0-.721-.721H58.659a.721.721,0,0,0-.721.721v7.926H56.5V39.926a.721.721,0,0,0-.721-.721H52.895a.721.721,0,0,0-.721.721V50.733H50.733V39.926a.721.721,0,0,0-.721-.721H47.131a.721.721,0,0,0-.721.721V50.733H44.969V42.808a.721.721,0,0,0-.721-.721H41.367a.721.721,0,0,0-.721.721v7.926H39.205V45.69a.721.721,0,0,0-.721-.721H35.6a.721.721,0,0,0-.721.721v5.044H33.441V32H32V51.454a.721.721,0,0,0,.721.721H69.467V50.733H68.026Zm-31.7,5.044V46.41h1.441v4.323Zm5.764,0V43.528h1.441v7.205Zm5.764,0V40.646h1.441V50.733Zm5.764,0V40.646h1.441V50.733Zm5.764,0V43.528h1.441v7.205Zm5.764,0V46.41h1.441v4.323Zm0,0" transform="translate(-29.118 -29.118)"/></svg>