<svg xmlns="http://www.w3.org/2000/svg" width="46" height="46" viewBox="0 0 46 46"><defs><style>.a{opacity:0.9;}.b{fill:#ff7900;}</style></defs><g class="a"><path class="b" d="M25.267,27.588v.778a.767.767,0,1,0,1.533,0v-.778C33.018,27.469,39.067,25.9,39.067,23V4.6c0-3.02-6.557-4.6-13.033-4.6S13,1.58,13,4.6V23C13,25.9,19.049,27.469,25.267,27.588Zm.767-1.522c-7.02,0-11.5-1.816-11.5-3.067V19.143c2.314,1.533,6.921,2.324,11.5,2.324s9.186-.794,11.5-2.324V23C37.533,24.25,33.053,26.067,26.033,26.067Zm11.5-15.333c0,1.25-4.48,3.067-11.5,3.067s-11.5-1.816-11.5-3.067V6.876C16.847,8.41,21.454,9.2,26.033,9.2s9.186-.793,11.5-2.324Zm-11.5,4.6c4.579,0,9.186-.793,11.5-2.324v3.857c0,1.25-4.48,3.067-11.5,3.067s-11.5-1.816-11.5-3.067V13.01C16.847,14.54,21.454,15.333,26.033,15.333Zm0-13.8c7.02,0,11.5,1.816,11.5,3.067s-4.48,3.067-11.5,3.067S14.533,5.85,14.533,4.6,19.014,1.533,26.033,1.533Z" transform="translate(-3.033)"/><circle class="b" cx="1" cy="1" r="1" transform="translate(13 9)"/><circle class="b" cx="1" cy="1" r="1" transform="translate(13 15)"/><circle class="b" cx="1" cy="1" r="1" transform="translate(13 21)"/><circle class="b" cx="1" cy="1" r="1" transform="translate(31 9)"/><circle class="b" cx="1" cy="1" r="1" transform="translate(31 15)"/><circle class="b" cx="1" cy="1" r="1" transform="translate(31 21)"/><path class="b" d="M2.3,56.267h9.2a2.3,2.3,0,0,0,2.3-2.3V47.833a2.3,2.3,0,0,0-2.3-2.3H8.433v-.767a.767.767,0,0,0-1.533,0v.767H2.3a2.3,2.3,0,0,0-2.3,2.3v6.133A2.3,2.3,0,0,0,2.3,56.267Zm-.767-2.3V50.133H4.6v4.6H2.3A.767.767,0,0,1,1.533,53.967Zm9.967.767H6.133v-4.6h6.133v3.833A.767.767,0,0,1,11.5,54.733ZM2.3,47.067h9.2a.767.767,0,0,1,.767.767V48.6H1.533v-.767A.767.767,0,0,1,2.3,47.067Z" transform="translate(0 -10.267)"/><path class="b" d="M21,53.967a2.3,2.3,0,0,0,2.3,2.3h9.2a2.3,2.3,0,0,0,2.3-2.3V47.833a2.3,2.3,0,0,0-2.3-2.3H28.667v-.767a.767.767,0,1,0-1.533,0v.767H23.3a2.3,2.3,0,0,0-2.3,2.3Zm1.533,0V50.133H25.6v4.6H23.3A.767.767,0,0,1,22.533,53.967Zm9.967.767H27.133v-4.6h6.133v3.833A.767.767,0,0,1,32.5,54.733Zm-9.2-7.667h9.2a.767.767,0,0,1,.767.767V48.6H22.533v-.767A.767.767,0,0,1,23.3,47.067Z" transform="translate(-4.9 -10.267)"/><path class="b" d="M53.5,45.533H48.9v-.767a.767.767,0,1,0-1.533,0v.767H44.3a2.3,2.3,0,0,0-2.3,2.3v6.133a2.3,2.3,0,0,0,2.3,2.3h9.2a2.3,2.3,0,0,0,2.3-2.3V47.833A2.3,2.3,0,0,0,53.5,45.533Zm-9.2,1.533h9.2a.767.767,0,0,1,.767.767V48.6H43.533v-.767A.767.767,0,0,1,44.3,47.067Zm-.767,6.9V50.133H46.6v4.6H44.3A.767.767,0,0,1,43.533,53.967Zm9.967.767H48.133v-4.6h6.133v3.833A.767.767,0,0,1,53.5,54.733Z" transform="translate(-9.8 -10.267)"/><ellipse class="b" cx="1" cy="0.5" rx="1" ry="0.5" transform="translate(22 31)"/><ellipse class="b" cx="1" cy="0.5" rx="1" ry="0.5" transform="translate(19 31)"/><ellipse class="b" cx="1" cy="0.5" rx="1" ry="0.5" transform="translate(16 31)"/><ellipse class="b" cx="1" cy="0.5" rx="1" ry="0.5" transform="translate(13 31)"/><ellipse class="b" cx="1" cy="0.5" rx="1" ry="0.5" transform="translate(10 31)"/><circle class="b" cx="0.5" cy="0.5" r="0.5" transform="translate(7 31)"/><ellipse class="b" cx="1" cy="0.5" rx="1" ry="0.5" transform="translate(25 31)"/><ellipse class="b" cx="1" cy="0.5" rx="1" ry="0.5" transform="translate(28 31)"/><ellipse class="b" cx="1" cy="0.5" rx="1" ry="0.5" transform="translate(31 31)"/><circle class="b" cx="0.5" cy="0.5" r="0.5" transform="translate(35 31)"/><circle class="b" cx="0.5" cy="0.5" r="0.5" transform="translate(38 31)"/></g></svg>