<svg xmlns="http://www.w3.org/2000/svg" width="50.648" height="50.648" viewBox="0 0 50.648 50.648"><g transform="translate(-8 -8)"><path d="M58.648,41.9a2.044,2.044,0,0,0-2.042-2.042H51.3V38.225a.817.817,0,0,0-.817-.817h-.817V33.324a.817.817,0,0,0-.817-.817h-14.7V24.338h7.352a4.9,4.9,0,0,0,.662-9.759,8.17,8.17,0,0,0-14.677-3.137,6.536,6.536,0,1,0-1.506,12.9h6.535v8.169H17.8a.817.817,0,0,0-.817.817v4.085h-.817a.817.817,0,0,0-.817.817v1.634h-5.31A2.044,2.044,0,0,0,8,41.9v2.451a2.033,2.033,0,0,0,.413,1.225A2.033,2.033,0,0,0,8,46.8v2.451a2.033,2.033,0,0,0,.413,1.225A2.033,2.033,0,0,0,8,51.7v2.451A2.044,2.044,0,0,0,10.042,56.2h5.31v1.634a.817.817,0,0,0,.817.817h3.268a.817.817,0,0,0,.817-.817V56.2h5.31a2.044,2.044,0,0,0,2.042-2.042V51.7a2.033,2.033,0,0,0-.413-1.225,2.033,2.033,0,0,0,.413-1.225V46.8a2.033,2.033,0,0,0-.413-1.225,2.033,2.033,0,0,0,.413-1.225V41.9a2.044,2.044,0,0,0-2.042-2.042h-5.31V38.225a.817.817,0,0,0-.817-.817H18.62V34.141H48.028v3.268h-.817a.817.817,0,0,0-.817.817v1.634h-5.31A2.044,2.044,0,0,0,39.042,41.9v2.451a2.033,2.033,0,0,0,.413,1.225,2.033,2.033,0,0,0-.413,1.225v2.451a2.033,2.033,0,0,0,.413,1.225,2.033,2.033,0,0,0-.413,1.225v2.451A2.044,2.044,0,0,0,41.085,56.2h5.31v1.634a.817.817,0,0,0,.817.817h3.268a.817.817,0,0,0,.817-.817V56.2h5.31a2.044,2.044,0,0,0,2.042-2.042V51.7a2.033,2.033,0,0,0-.413-1.225,2.033,2.033,0,0,0,.413-1.225V46.8a2.033,2.033,0,0,0-.413-1.225,2.033,2.033,0,0,0,.413-1.225ZM16.986,39.042H18.62v.817H16.986ZM18.62,57.014H16.986V56.2H18.62Zm7.352-2.859a.408.408,0,0,1-.408.408H10.042a.408.408,0,0,1-.408-.408V51.7a.408.408,0,0,1,.408-.408H25.563a.408.408,0,0,1,.408.408Zm0-4.9a.408.408,0,0,1-.408.408H10.042a.408.408,0,0,1-.408-.408V46.8a.408.408,0,0,1,.408-.408H25.563a.408.408,0,0,1,.408.408Zm-.408-7.761a.408.408,0,0,1,.408.408v2.451a.408.408,0,0,1-.408.408H10.042a.408.408,0,0,1-.408-.408V41.9a.408.408,0,0,1,.408-.408ZM25.972,22.7a4.9,4.9,0,1,1,1.594-9.537.818.818,0,0,0,.966-.353,6.535,6.535,0,0,1,12.1,2.627.816.816,0,0,0,.812.728h.045a3.268,3.268,0,0,1,0,6.535ZM48.028,39.042h1.634v.817H48.028Zm1.634,17.972H48.028V56.2h1.634Zm7.352-2.859a.408.408,0,0,1-.408.408H41.085a.408.408,0,0,1-.408-.408V51.7a.408.408,0,0,1,.408-.408H56.606a.408.408,0,0,1,.408.408Zm0-4.9a.408.408,0,0,1-.408.408H41.085a.408.408,0,0,1-.408-.408V46.8a.408.408,0,0,1,.408-.408H56.606a.408.408,0,0,1,.408.408Zm0-4.9a.408.408,0,0,1-.408.408H41.085a.408.408,0,0,1-.408-.408V41.9a.408.408,0,0,1,.408-.408H56.606a.408.408,0,0,1,.408.408Z" transform="translate(0 0)" fill="#fff"/><ellipse cx="0.717" cy="1.075" rx="0.717" ry="1.075" transform="translate(41.442 42.159)" fill="#fff"/><ellipse cx="0.717" cy="1.075" rx="0.717" ry="1.075" transform="translate(44.31 42.159)" fill="#fff"/><path d="M424.817,345.634H428.9a.817.817,0,0,0,0-1.634h-4.085a.817.817,0,0,0,0,1.634Z" transform="translate(-373.521 -301.69)" fill="#fff"/><circle cx="0.717" cy="0.717" r="0.717" transform="translate(41.442 47.178)" fill="#fff"/><circle cx="0.717" cy="0.717" r="0.717" transform="translate(44.31 47.178)" fill="#fff"/><path d="M424.817,393.634H428.9a.817.817,0,0,0,0-1.634h-4.085a.817.817,0,0,0,0,1.634Z" transform="translate(-373.521 -344.789)" fill="#fff"/><ellipse cx="0.717" cy="1.075" rx="0.717" ry="1.075" transform="translate(41.442 52.196)" fill="#fff"/><ellipse cx="0.717" cy="1.075" rx="0.717" ry="1.075" transform="translate(44.31 52.196)" fill="#fff"/><path d="M428.9,440h-4.085a.817.817,0,1,0,0,1.634H428.9a.817.817,0,0,0,0-1.634Z" transform="translate(-373.521 -387.887)" fill="#fff"/><ellipse cx="0.717" cy="1.075" rx="0.717" ry="1.075" transform="translate(10.615 42.159)" fill="#fff"/><circle cx="1.075" cy="1.075" r="1.075" transform="translate(12.766 42.159)" fill="#fff"/><path d="M120.817,345.634H124.9a.817.817,0,1,0,0-1.634h-4.085a.817.817,0,1,0,0,1.634Z" transform="translate(-100.563 -301.69)" fill="#fff"/><circle cx="0.717" cy="0.717" r="0.717" transform="translate(10.615 47.178)" fill="#fff"/><ellipse cx="1.075" cy="0.717" rx="1.075" ry="0.717" transform="translate(12.766 47.178)" fill="#fff"/><path d="M120.817,393.634H124.9a.817.817,0,1,0,0-1.634h-4.085a.817.817,0,1,0,0,1.634Z" transform="translate(-100.563 -344.789)" fill="#fff"/><ellipse cx="0.717" cy="1.075" rx="0.717" ry="1.075" transform="translate(10.615 52.196)" fill="#fff"/><circle cx="1.075" cy="1.075" r="1.075" transform="translate(12.766 52.196)" fill="#fff"/><path d="M124.9,440h-4.085a.817.817,0,1,0,0,1.634H124.9a.817.817,0,1,0,0-1.634Z" transform="translate(-100.563 -387.887)" fill="#fff"/></g></svg>